<svg xmlns="http://www.w3.org/2000/svg" width="28" height="28" viewBox="0 0 28 28">
    <g fill-rule="evenodd">
        <g fill-rule="nonzero" stroke-width=".5">
            <g>
                <g>
                    <g>
                        <path d="M15.013 8.005c1.002.415 1.83 1.111 2.407 1.975.577.864.904 1.895.904 2.98-.001 1.48-.602 2.821-1.572 3.792-.97.97-2.311 1.57-3.792 1.572-1.085 0-2.116-.327-2.98-.904-.864-.577-1.56-1.405-1.975-2.407-.416-1.003-.508-2.08-.306-3.1.203-1.018.701-1.979 1.468-2.746.767-.767 1.728-1.265 2.747-1.468 1.019-.202 2.096-.11 3.099.306zm-2.052.763c-.852 0-1.66.257-2.338.71-.678.453-1.224 1.103-1.549 1.889-.325.786-.397 1.632-.237 2.431.16.8.552 1.552 1.154 2.153.603.6 1.357.99 2.156 1.148.8.157 1.645.083 2.43-.245.786-.327 1.434-.875 1.885-1.554.451-.679.705-1.488.703-2.34-.001-1.161-.472-2.212-1.234-2.972-.76-.758-1.81-1.225-2.97-1.22z" transform="translate(-1070 -626) translate(384 157) translate(667 460) translate(20 10)"/>
                        <path stroke-linejoin="bevel" d="M12.381-.246H13.540000000000001V5.2620000000000005H12.381zM12.381 20.661H13.540000000000001V26.169H12.381zM20.661 12.381H26.169V13.540000000000001H20.661zM-.246 12.381H5.2620000000000005V13.540000000000001H-.246z" transform="translate(-1070 -626) translate(384 157) translate(667 460) translate(20 10)"/>
                        <path stroke-linejoin="bevel" d="M17.599 4.987H23.107V6.146H17.599z" transform="translate(-1070 -626) translate(384 157) translate(667 460) translate(20 10) rotate(-45 20.353 5.567)"/>
                        <path stroke-linejoin="bevel" d="M2.816 19.771H8.324V20.93H2.816z" transform="translate(-1070 -626) translate(384 157) translate(667 460) translate(20 10) rotate(-45 5.57 20.35)"/>
                        <path stroke-linejoin="bevel" d="M19.774 17.599H20.933V23.107H19.774z" transform="translate(-1070 -626) translate(384 157) translate(667 460) translate(20 10) rotate(-45 20.353 20.353)"/>
                        <path stroke-linejoin="bevel" d="M4.99 2.815H6.149V8.323H4.99z" transform="translate(-1070 -626) translate(384 157) translate(667 460) translate(20 10) rotate(-45 5.57 5.57)"/>
                    </g>
                </g>
            </g>
        </g>
    </g>
</svg>
