<?xml version="1.0" encoding="utf-8"?>
<!-- Generator: Adobe Illustrator 24.3.0, SVG Export Plug-In . SVG Version: 6.00 Build 0)  -->
<svg version="1.1" id="Layer_1" xmlns="http://www.w3.org/2000/svg" xmlns:xlink="http://www.w3.org/1999/xlink" x="0px" y="0px"
	 viewBox="0 0 23.3 24.9" style="enable-background:new 0 0 23.3 24.9;" xml:space="preserve">
<style type="text/css">
	.st0{fill:#666666;}
	.st1{fill:#FF490F;}
</style>
<g>
	<g>
		<path class="st0" d="M2.1,19.6L2,19.5V6.9h16v4.7c0.2,0.2,0.3,0.4,0.5,0.6l1.5,2.6V3.7c0-1.2-1-2.1-2.1-2.1h-2V0.5
			C16,0.2,15.7,0,15.5,0h-1.1c-0.3,0-0.5,0.2-0.5,0.5v1.1H5.4V0.5C5.4,0.2,5.2,0,4.9,0h-1C3.6,0,3.4,0.2,3.4,0.5v1.1H2.1
			C1,1.6,0,2.5,0,3.7v15.8c0,1.2,1,2.1,2.1,2.1H8l1.2-2H2.1z"/>
	</g>
	<path class="st1" d="M22.4,23.2l-5.9-10c-0.3-0.5-1.1-0.5-1.4,0l-5.9,10c-0.3,0.5,0.1,1.2,0.7,1.2h11.8
		C22.3,24.4,22.7,23.7,22.4,23.2z M15.8,16.4c0.5,0,0.8,0.9,0.8,2.1c0,1.1-0.4,2.1-0.8,2.1c-0.5,0-0.8-0.9-0.8-2.1
		C14.9,17.3,15.3,16.4,15.8,16.4z M15.8,23.1c-0.5,0-0.9-0.4-0.9-0.9c0-0.5,0.4-0.9,0.9-0.9c0.5,0,0.9,0.4,0.9,0.9
		C16.7,22.7,16.3,23.1,15.8,23.1z"/>
</g>
</svg>
