<?xml version="1.0" encoding="utf-8"?>
<!-- Generator: Adobe Illustrator 24.3.0, SVG Export Plug-In . SVG Version: 6.00 Build 0)  -->
<svg version="1.1" id="Layer_1" xmlns="http://www.w3.org/2000/svg" xmlns:xlink="http://www.w3.org/1999/xlink" x="0px" y="0px"
	 viewBox="0 0 23.3 24.9" style="enable-background:new 0 0 23.3 24.9;" xml:space="preserve">
<style type="text/css">
	.st0{fill:#666666;}
	.st1{fill:#36DD17;}
</style>
<g>
	<path class="st0" d="M8.1,19.6h-6L2,19.5V6.9h16v11.2l2-1.8V3.7c0-1.2-1-2.1-2.1-2.1h-2V0.5C16,0.2,15.7,0,15.5,0h-1.1
		c-0.3,0-0.5,0.2-0.5,0.5v1.1H5.4V0.5C5.4,0.2,5.2,0,4.9,0h-1C3.6,0,3.4,0.2,3.4,0.5v1.1H2.1C1,1.6,0,2.5,0,3.7v15.8
		c0,1.2,1,2.1,2.1,2.1h7.7l-1.2-1.1C8.4,20.3,8.2,20,8.1,19.6z"/>
</g>
<g>
	<g>
		<path class="st1" d="M9.3,19.8l5.5,5.1l8.1-7.1c0.4-0.4,0.5-1,0.1-1.4c-0.4-0.4-1-0.5-1.4-0.1l-6.8,5.9l-4.2-3.9
			c-0.4-0.4-1-0.3-1.4,0.1C8.9,18.8,8.9,19.4,9.3,19.8L9.3,19.8z"/>
	</g>
</g>
</svg>
