<svg xmlns="http://www.w3.org/2000/svg" width="10" height="14" viewBox="0 0 10 14">
    <g fill="none" fill-rule="evenodd" opacity=".5">
        <g fill="#fff">
            <g>
                <g>
                    <path d="M6.3 4.903c0 .773-.627 1.4-1.4 1.4-.773 0-1.4-.627-1.4-1.4 0-.772.627-1.4 1.4-1.4.773 0 1.4.628 1.4 1.4zm-6.3 0c0 3.692 4.163 7.285 4.34 7.52l.56.747.56-.747c.177-.235 4.34-3.828 4.34-7.52 0-2.7-2.199-4.9-4.9-4.9-2.701 0-4.9 2.2-4.9 4.9z" transform="translate(-306 -23) translate(306 22) translate(0 1)"/>
                </g>
            </g>
        </g>
    </g>
</svg>
