<svg xmlns="http://www.w3.org/2000/svg" width="11" height="11" viewBox="0 0 11 11">
    <g fill="none" fill-rule="evenodd">
        <g fill="#fff" fill-rule="nonzero">
            <g>
                <g>
                    <path d="M1.318 1.318c1.757-1.757 4.607-1.757 6.364 0 1.638 1.638 1.75 4.224.334 5.99l2.848 2.849-.707.707-2.848-2.848C5.542 9.43 2.956 9.32 1.318 7.682c-1.757-1.757-1.757-4.607 0-6.364zm.707.707c-1.367 1.367-1.367 3.583 0 4.95s3.583 1.367 4.95 0 1.367-3.583 0-4.95-3.583-1.367-4.95 0z" transform="translate(-345 -107) translate(30 72) translate(315 35)"/>
                </g>
            </g>
        </g>
    </g>
</svg>
